<?xml version="1.0" encoding="UTF-8" standalone="no"?>
<!DOCTYPE svg PUBLIC "-//W3C//DTD SVG 1.1//EN"
 "http://www.w3.org/Graphics/SVG/1.1/DTD/svg11.dtd">
<!-- Generated by graphviz version 14.1.2 (20260124.0452)
 -->
<!-- Title: phase1 Pages: 1 -->
<svg width="472pt" height="1341pt"
 viewBox="0.00 0.00 472.00 1341.00" xmlns="http://www.w3.org/2000/svg" xmlns:xlink="http://www.w3.org/1999/xlink">
<g id="graph0" class="graph" transform="scale(1 1) rotate(0) translate(4 1336.99)">
<title>phase1</title>
<polygon fill="white" stroke="none" points="-4,4 -4,-1336.99 468.31,-1336.99 468.31,4 -4,4"/>
<text xml:space="preserve" text-anchor="middle" x="232.15" y="-1317.59" font-family="Helvetica,Arial,sans-serif" font-size="12.00">Phase 1 — PXE Validation</text>
<text xml:space="preserve" text-anchor="middle" x="232.15" y="-1304.84" font-family="Helvetica,Arial,sans-serif" font-size="12.00">discovered → staged</text>
<!-- trigger -->
<g id="node1" class="node">
<title>trigger</title>
<ellipse fill="#cce5ff" stroke="#2255aa" cx="272.59" cy="-1269.87" rx="113.09" ry="28.13"/>
<text xml:space="preserve" text-anchor="middle" x="272.59" y="-1271.62" font-family="Helvetica,Arial,sans-serif" font-size="10.00">Manual trigger</text>
<text xml:space="preserve" text-anchor="middle" x="272.59" y="-1260.37" font-family="Helvetica,Arial,sans-serif" font-size="10.00">Onsite tech powers on server</text>
</g>
<!-- phase0 -->
<g id="node2" class="node">
<title>phase0</title>
<path fill="#e8eaf6" stroke="#3949ab" d="M362.68,-1196.74C362.68,-1196.74 182.5,-1196.74 182.5,-1196.74 176.5,-1196.74 170.5,-1190.74 170.5,-1184.74 170.5,-1184.74 170.5,-1168.96 170.5,-1168.96 170.5,-1162.96 176.5,-1156.96 182.5,-1156.96 182.5,-1156.96 362.68,-1156.96 362.68,-1156.96 368.68,-1156.96 374.68,-1162.96 374.68,-1168.96 374.68,-1168.96 374.68,-1184.74 374.68,-1184.74 374.68,-1190.74 368.68,-1196.74 362.68,-1196.74"/>
<text xml:space="preserve" text-anchor="middle" x="272.59" y="-1178.6" font-family="Helvetica,Arial,sans-serif" font-size="10.00">Phase 0 — DHCP hook fires</text>
<text xml:space="preserve" text-anchor="middle" x="272.59" y="-1167.35" font-family="Helvetica,Arial,sans-serif" font-size="10.00">BMC IP recorded · device = discovered</text>
</g>
<!-- trigger&#45;&gt;phase0 -->
<g id="edge1" class="edge">
<title>trigger&#45;&gt;phase0</title>
<path fill="none" stroke="#555555" d="M272.59,-1241.56C272.59,-1230.46 272.59,-1217.64 272.59,-1206.41"/>
<polygon fill="#555555" stroke="#555555" points="275.39,-1206.56 272.59,-1198.56 269.79,-1206.56 275.39,-1206.56"/>
</g>
<!-- pxe -->
<g id="node3" class="node">
<title>pxe</title>
<path fill="#f3e5f5" stroke="#6a1b9a" d="M342.43,-1111.96C342.43,-1111.96 202.75,-1111.96 202.75,-1111.96 196.75,-1111.96 190.75,-1105.96 190.75,-1099.96 190.75,-1099.96 190.75,-1071.43 190.75,-1071.43 190.75,-1065.43 196.75,-1059.43 202.75,-1059.43 202.75,-1059.43 342.43,-1059.43 342.43,-1059.43 348.43,-1059.43 354.43,-1065.43 354.43,-1071.43 354.43,-1071.43 354.43,-1099.96 354.43,-1099.96 354.43,-1105.96 348.43,-1111.96 342.43,-1111.96"/>
<text xml:space="preserve" text-anchor="middle" x="272.59" y="-1093.82" font-family="Helvetica,Arial,sans-serif" font-size="10.00">Server PXE boots</text>
<text xml:space="preserve" text-anchor="middle" x="272.59" y="-1082.57" font-family="Helvetica,Arial,sans-serif" font-size="10.00">DHCP → TFTP kernel + initrd</text>
<text xml:space="preserve" text-anchor="middle" x="272.59" y="-1069.82" font-family="Helvetica,Arial,sans-serif" font-size="10.00">HTTP rootfs</text>
</g>
<!-- phase0&#45;&gt;pxe -->
<g id="edge2" class="edge">
<title>phase0&#45;&gt;pxe</title>
<path fill="none" stroke="#555555" d="M272.59,-1156.5C272.59,-1146.32 272.59,-1133.52 272.59,-1121.66"/>
<polygon fill="#555555" stroke="#555555" points="275.39,-1121.94 272.59,-1113.94 269.79,-1121.94 275.39,-1121.94"/>
</g>
<!-- main -->
<g id="node4" class="node">
<title>main</title>
<path fill="#fce4ec" stroke="#880e4f" d="M397.93,-1014.43C397.93,-1014.43 147.25,-1014.43 147.25,-1014.43 141.25,-1014.43 135.25,-1008.43 135.25,-1002.43 135.25,-1002.43 135.25,-975.4 135.25,-975.4 135.25,-969.4 141.25,-963.4 147.25,-963.4 147.25,-963.4 397.93,-963.4 397.93,-963.4 403.93,-963.4 409.93,-969.4 409.93,-975.4 409.93,-975.4 409.93,-1002.43 409.93,-1002.43 409.93,-1008.43 403.93,-1014.43 397.93,-1014.43"/>
<text xml:space="preserve" text-anchor="middle" x="272.59" y="-996.29" font-family="Helvetica,Arial,sans-serif" font-size="10.00">main.sh starts (systemd)</text>
<text xml:space="preserve" text-anchor="middle" x="272.59" y="-985.04" font-family="Helvetica,Arial,sans-serif" font-size="10.00">Parse kernel cmdline</text>
<text xml:space="preserve" text-anchor="middle" x="272.59" y="-973.79" font-family="Helvetica,Arial,sans-serif" font-size="10.00">NETBOX_URL · NETBOX_TOKEN · CALLBACK_URL</text>
</g>
<!-- pxe&#45;&gt;main -->
<g id="edge3" class="edge">
<title>pxe&#45;&gt;main</title>
<path fill="none" stroke="#555555" d="M272.59,-1059.29C272.59,-1048.5 272.59,-1035.75 272.59,-1024.14"/>
<polygon fill="#555555" stroke="#555555" points="275.39,-1024.24 272.59,-1016.24 269.79,-1024.24 275.39,-1024.24"/>
</g>
<!-- p01 -->
<g id="node5" class="node">
<title>p01</title>
<path fill="#e3f2fd" stroke="#1565c0" d="M360.43,-918.4C360.43,-918.4 184.75,-918.4 184.75,-918.4 178.75,-918.4 172.75,-912.4 172.75,-906.4 172.75,-906.4 172.75,-868.12 172.75,-868.12 172.75,-862.12 178.75,-856.12 184.75,-856.12 184.75,-856.12 360.43,-856.12 360.43,-856.12 366.43,-856.12 372.43,-862.12 372.43,-868.12 372.43,-868.12 372.43,-906.4 372.43,-906.4 372.43,-912.4 366.43,-918.4 360.43,-918.4"/>
<text xml:space="preserve" text-anchor="middle" x="272.59" y="-900.26" font-family="Helvetica,Arial,sans-serif" font-size="10.00">01 — Boot Init</text>
<text xml:space="preserve" text-anchor="middle" x="272.59" y="-889.01" font-family="Helvetica,Arial,sans-serif" font-size="10.00">Hardware inventory (dmidecode)</text>
<text xml:space="preserve" text-anchor="middle" x="272.59" y="-877.76" font-family="Helvetica,Arial,sans-serif" font-size="10.00">Find device in NetBox by serial / MAC</text>
<text xml:space="preserve" text-anchor="middle" x="272.59" y="-866.51" font-family="Helvetica,Arial,sans-serif" font-size="10.00">Journal hardware info</text>
</g>
<!-- main&#45;&gt;p01 -->
<g id="edge4" class="edge">
<title>main&#45;&gt;p01</title>
<path fill="none" stroke="#555555" d="M272.59,-963.02C272.59,-952.47 272.59,-939.9 272.59,-928.12"/>
<polygon fill="#555555" stroke="#555555" points="275.39,-928.39 272.59,-920.39 269.79,-928.39 275.39,-928.39"/>
</g>
<!-- p01_chk -->
<g id="node6" class="node">
<title>p01_chk</title>
<path fill="#fff3cd" stroke="#856404" d="M261.63,-806.24C261.63,-806.24 194.12,-776.21 194.12,-776.21 188.64,-773.78 188.64,-768.9 194.12,-766.46 194.12,-766.46 261.63,-736.43 261.63,-736.43 267.11,-734 278.07,-734 283.55,-736.43 283.55,-736.43 351.06,-766.46 351.06,-766.46 356.54,-768.9 356.54,-773.78 351.06,-776.21 351.06,-776.21 283.55,-806.24 283.55,-806.24 278.07,-808.68 267.11,-808.68 261.63,-806.24"/>
<text xml:space="preserve" text-anchor="middle" x="272.59" y="-773.09" font-family="Helvetica,Arial,sans-serif" font-size="10.00">Device found</text>
<text xml:space="preserve" text-anchor="middle" x="272.59" y="-761.84" font-family="Helvetica,Arial,sans-serif" font-size="10.00">in NetBox?</text>
</g>
<!-- p01&#45;&gt;p01_chk -->
<g id="edge5" class="edge">
<title>p01&#45;&gt;p01_chk</title>
<path fill="none" stroke="#555555" d="M272.59,-855.73C272.59,-845.02 272.59,-832.7 272.59,-820.88"/>
<polygon fill="#555555" stroke="#555555" points="275.39,-821.06 272.59,-813.06 269.79,-821.06 275.39,-821.06"/>
</g>
<!-- p02 -->
<g id="node7" class="node">
<title>p02</title>
<path fill="#e3f2fd" stroke="#1565c0" d="M242.81,-677.81C242.81,-677.81 96.38,-677.81 96.38,-677.81 90.38,-677.81 84.38,-671.81 84.38,-665.81 84.38,-665.81 84.38,-638.78 84.38,-638.78 84.38,-632.78 90.38,-626.78 96.38,-626.78 96.38,-626.78 242.81,-626.78 242.81,-626.78 248.81,-626.78 254.81,-632.78 254.81,-638.78 254.81,-638.78 254.81,-665.81 254.81,-665.81 254.81,-671.81 248.81,-677.81 242.81,-677.81"/>
<text xml:space="preserve" text-anchor="middle" x="169.59" y="-659.67" font-family="Helvetica,Arial,sans-serif" font-size="10.00">02 — Memory Test</text>
<text xml:space="preserve" text-anchor="middle" x="169.59" y="-648.42" font-family="Helvetica,Arial,sans-serif" font-size="10.00">memtester — all available RAM</text>
<text xml:space="preserve" text-anchor="middle" x="169.59" y="-637.17" font-family="Helvetica,Arial,sans-serif" font-size="10.00">Journal pass / fail + bandwidth</text>
</g>
<!-- p01_chk&#45;&gt;p02 -->
<g id="edge7" class="edge">
<title>p01_chk&#45;&gt;p02</title>
<path fill="none" stroke="#555555" d="M247.92,-742.3C232.68,-724.99 213.1,-702.73 197.32,-684.81"/>
<polygon fill="#555555" stroke="#555555" points="199.65,-683.21 192.26,-679.06 195.45,-686.91 199.65,-683.21"/>
<text xml:space="preserve" text-anchor="middle" x="225.13" y="-701.01" font-family="Helvetica,Arial,sans-serif" font-size="9.00">yes</text>
</g>
<!-- nodev -->
<g id="node14" class="node">
<title>nodev</title>
<path fill="#f8d7da" stroke="#721c24" d="M452.31,-672.18C452.31,-672.18 302.88,-672.18 302.88,-672.18 296.88,-672.18 290.88,-666.18 290.88,-660.18 290.88,-660.18 290.88,-644.4 290.88,-644.4 290.88,-638.4 296.88,-632.4 302.88,-632.4 302.88,-632.4 452.31,-632.4 452.31,-632.4 458.31,-632.4 464.31,-638.4 464.31,-644.4 464.31,-644.4 464.31,-660.18 464.31,-660.18 464.31,-666.18 458.31,-672.18 452.31,-672.18"/>
<text xml:space="preserve" text-anchor="middle" x="377.59" y="-654.04" font-family="Helvetica,Arial,sans-serif" font-size="10.00">Journal error — device not found</text>
<text xml:space="preserve" text-anchor="middle" x="377.59" y="-642.79" font-family="Helvetica,Arial,sans-serif" font-size="10.00">Halt</text>
</g>
<!-- p01_chk&#45;&gt;nodev -->
<g id="edge6" class="edge">
<title>p01_chk&#45;&gt;nodev</title>
<path fill="none" stroke="#dc3545" d="M297.74,-742.3C314.88,-723.2 337.41,-698.08 354.17,-679.4"/>
<polygon fill="#dc3545" stroke="#dc3545" points="356.25,-681.28 359.5,-673.45 352.08,-677.54 356.25,-681.28"/>
<text xml:space="preserve" text-anchor="middle" x="339.74" y="-701.01" font-family="Helvetica,Arial,sans-serif" font-size="9.00" fill="#dc3545">no</text>
</g>
<!-- p03 -->
<g id="node8" class="node">
<title>p03</title>
<path fill="#e3f2fd" stroke="#1565c0" d="M230.06,-581.78C230.06,-581.78 109.13,-581.78 109.13,-581.78 103.13,-581.78 97.13,-575.78 97.13,-569.78 97.13,-569.78 97.13,-531.5 97.13,-531.5 97.13,-525.5 103.13,-519.5 109.13,-519.5 109.13,-519.5 230.06,-519.5 230.06,-519.5 236.06,-519.5 242.06,-525.5 242.06,-531.5 242.06,-531.5 242.06,-569.78 242.06,-569.78 242.06,-575.78 236.06,-581.78 230.06,-581.78"/>
<text xml:space="preserve" text-anchor="middle" x="169.59" y="-563.64" font-family="Helvetica,Arial,sans-serif" font-size="10.00">03 — Disk I/O</text>
<text xml:space="preserve" text-anchor="middle" x="169.59" y="-552.39" font-family="Helvetica,Arial,sans-serif" font-size="10.00">fio per block device</text>
<text xml:space="preserve" text-anchor="middle" x="169.59" y="-541.14" font-family="Helvetica,Arial,sans-serif" font-size="10.00">Seq + rand · read + write</text>
<text xml:space="preserve" text-anchor="middle" x="169.59" y="-529.89" font-family="Helvetica,Arial,sans-serif" font-size="10.00">Journal throughput / IOPS</text>
</g>
<!-- p02&#45;&gt;p03 -->
<g id="edge9" class="edge">
<title>p02&#45;&gt;p03</title>
<path fill="none" stroke="#555555" d="M169.59,-626.4C169.59,-615.85 169.59,-603.28 169.59,-591.5"/>
<polygon fill="#555555" stroke="#555555" points="172.39,-591.77 169.59,-583.77 166.79,-591.77 172.39,-591.77"/>
</g>
<!-- p04 -->
<g id="node9" class="node">
<title>p04</title>
<path fill="#e3f2fd" stroke="#1565c0" d="M236.81,-474.5C236.81,-474.5 102.38,-474.5 102.38,-474.5 96.38,-474.5 90.38,-468.5 90.38,-462.5 90.38,-462.5 90.38,-422.72 90.38,-422.72 90.38,-416.72 96.38,-410.72 102.38,-410.72 102.38,-410.72 236.81,-410.72 236.81,-410.72 242.81,-410.72 248.81,-416.72 248.81,-422.72 248.81,-422.72 248.81,-462.5 248.81,-462.5 248.81,-468.5 242.81,-474.5 236.81,-474.5"/>
<text xml:space="preserve" text-anchor="middle" x="169.59" y="-456.36" font-family="Helvetica,Arial,sans-serif" font-size="10.00">04 — LLDP Discovery</text>
<text xml:space="preserve" text-anchor="middle" x="169.59" y="-445.11" font-family="Helvetica,Arial,sans-serif" font-size="10.00">lldpad on all NICs · wait 60 s</text>
<text xml:space="preserve" text-anchor="middle" x="169.59" y="-433.86" font-family="Helvetica,Arial,sans-serif" font-size="10.00">Map NIC → switch port</text>
<text xml:space="preserve" text-anchor="middle" x="169.59" y="-421.11" font-family="Helvetica,Arial,sans-serif" font-size="10.00">Journal neighbour table</text>
</g>
<!-- p03&#45;&gt;p04 -->
<g id="edge10" class="edge">
<title>p03&#45;&gt;p04</title>
<path fill="none" stroke="#555555" d="M169.59,-519.25C169.59,-508.24 169.59,-495.63 169.59,-483.9"/>
<polygon fill="#555555" stroke="#555555" points="172.39,-484.25 169.59,-476.25 166.79,-484.25 172.39,-484.25"/>
</g>
<!-- p05 -->
<g id="node10" class="node">
<title>p05</title>
<path fill="#e3f2fd" stroke="#1565c0" d="M260.06,-365.72C260.06,-365.72 79.13,-365.72 79.13,-365.72 73.13,-365.72 67.13,-359.72 67.13,-353.72 67.13,-353.72 67.13,-326.69 67.13,-326.69 67.13,-320.69 73.13,-314.69 79.13,-314.69 79.13,-314.69 260.06,-314.69 260.06,-314.69 266.06,-314.69 272.06,-320.69 272.06,-326.69 272.06,-326.69 272.06,-353.72 272.06,-353.72 272.06,-359.72 266.06,-365.72 260.06,-365.72"/>
<text xml:space="preserve" text-anchor="middle" x="169.59" y="-347.58" font-family="Helvetica,Arial,sans-serif" font-size="10.00">05 — Final Report</text>
<text xml:space="preserve" text-anchor="middle" x="169.59" y="-336.33" font-family="Helvetica,Arial,sans-serif" font-size="10.00">Aggregate all results</text>
<text xml:space="preserve" text-anchor="middle" x="169.59" y="-325.08" font-family="Helvetica,Arial,sans-serif" font-size="10.00">POST server_live event to callback API</text>
</g>
<!-- p04&#45;&gt;p05 -->
<g id="edge11" class="edge">
<title>p04&#45;&gt;p05</title>
<path fill="none" stroke="#555555" d="M169.59,-410.39C169.59,-399.24 169.59,-386.62 169.59,-375.24"/>
<polygon fill="#555555" stroke="#555555" points="172.39,-375.54 169.59,-367.54 166.79,-375.54 172.39,-375.54"/>
</g>
<!-- result -->
<g id="node11" class="node">
<title>result</title>
<path fill="#fff3cd" stroke="#856404" d="M159.22,-263.66C159.22,-263.66 111.53,-235.94 111.53,-235.94 106.35,-232.92 106.35,-226.89 111.53,-223.88 111.53,-223.88 159.22,-196.16 159.22,-196.16 164.4,-193.14 174.78,-193.14 179.96,-196.16 179.96,-196.16 227.65,-223.88 227.65,-223.88 232.83,-226.89 232.83,-232.92 227.65,-235.94 227.65,-235.94 179.96,-263.66 179.96,-263.66 174.78,-266.67 164.4,-266.67 159.22,-263.66"/>
<text xml:space="preserve" text-anchor="middle" x="169.59" y="-231.66" font-family="Helvetica,Arial,sans-serif" font-size="10.00">All tests</text>
<text xml:space="preserve" text-anchor="middle" x="169.59" y="-220.41" font-family="Helvetica,Arial,sans-serif" font-size="10.00">passed?</text>
</g>
<!-- p05&#45;&gt;result -->
<g id="edge12" class="edge">
<title>p05&#45;&gt;result</title>
<path fill="none" stroke="#555555" d="M169.59,-314.36C169.59,-303.91 169.59,-291.37 169.59,-279.23"/>
<polygon fill="#555555" stroke="#555555" points="172.39,-279.58 169.59,-271.58 166.79,-279.58 172.39,-279.58"/>
</g>
<!-- staged -->
<g id="node12" class="node">
<title>staged</title>
<path fill="#d4edda" stroke="#28a745" d="M141.18,-131.5C141.18,-131.5 12,-131.5 12,-131.5 6,-131.5 0,-125.5 0,-119.5 0,-119.5 0,-102.22 0,-102.22 0,-96.22 6,-90.22 12,-90.22 12,-90.22 141.18,-90.22 141.18,-90.22 147.18,-90.22 153.18,-96.22 153.18,-102.22 153.18,-102.22 153.18,-119.5 153.18,-119.5 153.18,-125.5 147.18,-131.5 141.18,-131.5"/>
<text xml:space="preserve" text-anchor="middle" x="76.59" y="-113.36" font-family="Helvetica,Arial,sans-serif" font-size="10.00">PATCH device → staged</text>
<text xml:space="preserve" text-anchor="middle" x="76.59" y="-100.61" font-family="Helvetica,Arial,sans-serif" font-size="10.00">Journal: validation complete</text>
</g>
<!-- result&#45;&gt;staged -->
<g id="edge13" class="edge">
<title>result&#45;&gt;staged</title>
<path fill="none" stroke="#28a745" d="M148.25,-202.06C133.27,-183.19 113.29,-158.05 98.23,-139.1"/>
<polygon fill="#28a745" stroke="#28a745" points="100.43,-137.36 93.26,-132.84 96.04,-140.84 100.43,-137.36"/>
<text xml:space="preserve" text-anchor="middle" x="127.43" y="-159.58" font-family="Helvetica,Arial,sans-serif" font-size="9.00" fill="#28a745">yes</text>
</g>
<!-- failed -->
<g id="node13" class="node">
<title>failed</title>
<path fill="#fff9c4" stroke="#856404" d="M327.68,-136.38C327.68,-136.38 201.5,-136.38 201.5,-136.38 195.5,-136.38 189.5,-130.38 189.5,-124.38 189.5,-124.38 189.5,-97.35 189.5,-97.35 189.5,-91.35 195.5,-85.35 201.5,-85.35 201.5,-85.35 327.68,-85.35 327.68,-85.35 333.68,-85.35 339.68,-91.35 339.68,-97.35 339.68,-97.35 339.68,-124.38 339.68,-124.38 339.68,-130.38 333.68,-136.38 327.68,-136.38"/>
<text xml:space="preserve" text-anchor="middle" x="264.59" y="-118.24" font-family="Helvetica,Arial,sans-serif" font-size="10.00">Journal error — test failed</text>
<text xml:space="preserve" text-anchor="middle" x="264.59" y="-106.99" font-family="Helvetica,Arial,sans-serif" font-size="10.00">Device remains discovered</text>
<text xml:space="preserve" text-anchor="middle" x="264.59" y="-95.74" font-family="Helvetica,Arial,sans-serif" font-size="10.00">Awaits manual review</text>
</g>
<!-- result&#45;&gt;failed -->
<g id="edge14" class="edge">
<title>result&#45;&gt;failed</title>
<path fill="none" stroke="#856404" d="M191.15,-202.35C205.26,-184.96 223.78,-162.15 238.69,-143.77"/>
<polygon fill="#856404" stroke="#856404" points="240.6,-145.87 243.46,-137.89 236.25,-142.34 240.6,-145.87"/>
<text xml:space="preserve" text-anchor="middle" x="230.85" y="-159.58" font-family="Helvetica,Arial,sans-serif" font-size="9.00" fill="#856404">no</text>
</g>
<!-- done -->
<g id="node15" class="node">
<title>done</title>
<ellipse fill="#d4edda" stroke="#28a745" cx="169.59" cy="-20.17" rx="38.84" ry="20.17"/>
<text xml:space="preserve" text-anchor="middle" x="169.59" y="-16.3" font-family="Helvetica,Arial,sans-serif" font-size="10.00">Done</text>
</g>
<!-- staged&#45;&gt;done -->
<g id="edge15" class="edge">
<title>staged&#45;&gt;done</title>
<path fill="none" stroke="#555555" d="M97.69,-89.74C111.69,-76.39 130.13,-58.81 144.82,-44.79"/>
<polygon fill="#555555" stroke="#555555" points="146.75,-46.83 150.6,-39.28 142.88,-42.77 146.75,-46.83"/>
</g>
<!-- failed&#45;&gt;done -->
<g id="edge16" class="edge">
<title>failed&#45;&gt;done</title>
<path fill="none" stroke="#555555" d="M237.87,-84.92C224.32,-72.27 207.96,-56.99 194.65,-44.56"/>
<polygon fill="#555555" stroke="#555555" points="196.86,-42.8 189.1,-39.39 193.04,-46.89 196.86,-42.8"/>
</g>
<!-- halt -->
<g id="node16" class="node">
<title>halt</title>
<ellipse fill="#f8d7da" stroke="#dc3545" cx="377.59" cy="-550.64" rx="35.13" ry="20.17"/>
<text xml:space="preserve" text-anchor="middle" x="377.59" y="-546.76" font-family="Helvetica,Arial,sans-serif" font-size="10.00">Halt</text>
</g>
<!-- nodev&#45;&gt;halt -->
<g id="edge8" class="edge">
<title>nodev&#45;&gt;halt</title>
<path fill="none" stroke="#555555" d="M377.59,-632.08C377.59,-617.42 377.59,-596.99 377.59,-580.39"/>
<polygon fill="#555555" stroke="#555555" points="380.39,-580.65 377.59,-572.65 374.79,-580.65 380.39,-580.65"/>
</g>
</g>
</svg>
